<?xml version="1.0" encoding="utf-8"?>
<!-- Generator: Adobe Illustrator 27.4.0, SVG Export Plug-In . SVG Version: 6.00 Build 0)  -->
<svg version="1.1" id="katman_1" xmlns="http://www.w3.org/2000/svg" xmlns:xlink="http://www.w3.org/1999/xlink" x="0px" y="0px"
	 viewBox="0 0 170.08 104.12" style="enable-background:new 0 0 170.08 104.12;" xml:space="preserve">
<style type="text/css">
	.st0{fill:#FFFFFF;}
</style>
<g>
	<path class="st0" d="M105.45,55.3c3.02-1.63,6.29-2.36,9.69-2.64c4.02-0.33,7.93,0.3,11.79,1.33c2.72,0.73,4.71,2.42,5.63,5.14
		c0.65,1.93,0.37,3.94,0.11,5.89c-0.57,4.27-1.59,8.46-2.35,12.7c-0.29,1.61-0.56,3.26-0.97,4.86c-0.32,1.26-1.24,1.66-2.43,1.66
		c-2.95-0.01-5.9,0-8.85,0c-0.56,0-1.13-0.09-1.56,0.42c-1.91,2.29-4.65,2.95-7.35,3.52c-3.33,0.71-6.5-0.02-9.34-1.85
		c-2.31-1.48-3.06-3.87-3.3-6.46c-0.06-0.65,0.03-1.31,0-1.96c-0.04-0.88,0.15-1.74,0.44-2.56c0.01-0.04,0.03-0.07,0.04-0.11
		c1.24-4.03,4.32-5.94,8.16-6.94c3.08-0.81,6.22-1.12,9.38-1.11c1.51,0.01,2.95-0.38,4.34-0.85c1.82-0.61,2.42-1.78,2.11-3.74
		c-0.24-1.51-1.45-1.93-2.73-2.15c-2.39-0.41-4.23,0.42-5.46,2.51c-0.43,0.73-1,0.87-1.75,0.86c-2.72-0.02-5.43,0.02-8.15-0.02
		c-1.26-0.02-2.17,0.28-3.16,1.26c-2.22,2.19-5.07,3.35-8.11,4.13c-3,0.77-6.02,0.62-9.03,0.51c-4.56-0.16-6.98,1.95-7.74,6.59
		c-0.49,2.96-1.08,5.91-1.66,8.85c-0.24,1.26-0.84,1.53-1.96,0.84c-3.02-1.86-5.72-4.14-8.23-6.64c-1.46-1.45-0.67-3.17-0.39-4.77
		c0.55-3.09,1.08-6.19,1.88-9.22c1.14-4.36,3.57-7.18,8.24-7.21c5.57-0.03,11.14,0,16.72,0.02c2.44,0.01,5.45-2.36,5.26-4.55
		c-0.11-1.23-0.12-2.75-0.86-3.75c-1.1-1.5-2.84-2.12-4.76-2.12c-7.3,0.01-14.61-0.07-21.91,0.04c-2.3,0.04-4.3-0.51-5.89-2.04
		c-2.14-2.06-3.12-4.7-2.97-7.69c0.05-0.98,0.85-0.92,1.57-0.92c6.04,0.01,12.08,0,18.12,0c4.35,0,8.71-0.07,13.06,0.03
		c2.36,0.05,4.75,0.16,6.99,1.06c3.17,1.28,5.13,3.57,6.36,6.8C105.7,48.43,105.42,51.85,105.45,55.3z M119.14,72.65
		c-1.45,0.54-2.93,0.83-4.44,1.09c-1.44,0.25-2.96,0.15-4.31,0.96c-1.59,0.96-2.15,4.38-0.68,5.17c1.37,0.73,2.94,1.15,4.55,0.6
		C117.23,79.48,119.26,76.25,119.14,72.65z"/>
	<path class="st0" d="M148.35,72.79c0.69-1.55,1.4-3.1,2.08-4.66c1.99-4.59,4-9.17,5.94-13.77c0.33-0.78,0.76-1.01,1.57-1
		c3.56,0.04,7.12,0.02,10.67,0.02c1.73,0,1.74,0.01,0.98,1.52c-5.86,11.74-11.72,23.49-17.58,35.23c-0.5,1-1.07,1.97-1.55,2.98
		c-1.89,4-5.09,6.17-9.4,6.93c-3.69,0.65-7.39,0.48-11.09,0.31c-0.75-0.04-0.88-0.47-0.92-1.12c-0.1-1.56,0.45-3.03,0.71-4.52
		c0.22-1.26,0.47-2.55,0.65-3.81c0.16-1.13,0.65-1.22,1.55-1.25c1.39-0.03,2.77,0.08,4.18-0.17c1.81-0.33,2.88-1.57,2.47-3.84
		c-0.95-5.31-2.06-10.6-3.03-15.91c-0.82-4.51-1.55-9.03-2.32-13.55c-0.01-0.05-0.02-0.09-0.03-0.14c-0.51-2.66-0.51-2.66,2.18-2.66
		c3.09,0,6.18,0.04,9.27-0.02c1-0.02,1.21,0.35,1.29,1.28c0.28,3.18,0.75,6.34,1.03,9.51c0.25,2.86,0.59,5.7,0.96,8.54
		C148.1,72.71,148.23,72.75,148.35,72.79z"/>
	<path class="st0" d="M65.76,34.6c-1.69,0-3.37-0.05-5.06,0.02c-0.96,0.04-1.15-0.41-0.99-1.18c0.43-2.03,0.93-4.05,1.3-6.09
		c0.16-0.86,0.14-1.78,0.03-2.65c-0.15-1.12-0.9-1.84-1.98-2.14c-2.46-0.67-4.81,0.4-6.09,2.63c-1.26,2.21-1.42,4.72-1.95,7.11
		c-0.66,2.95-1.17,5.93-1.77,8.89c-0.66,3.23-3.46,5.92-6.76,5.92c-1.99,0-4-0.07-6-0.14c-0.69-0.02-0.81-0.39-0.67-0.91
		c0.47-1.7,0.75-3.44,1.16-5.15c0.4-1.66,0.45-3.45,0.79-5.15c0.7-3.53,1.36-7.06,2.31-10.54c0.41-1.51,0.43-3.15,0.7-4.73
		c0.77-4.56,1.91-9.05,2.76-13.59c0.35-1.86,0.68-3.72,0.94-5.6C44.6,0.42,44.9-0.01,45.88,0c3.09,0.04,6.18,0.02,9.27,0.01
		c1.21,0,1.91,0.54,1.7,1.8c-0.37,2.2-0.81,4.39-1.25,6.57c-0.39,1.96-0.82,3.91-1.22,5.86c-0.18,0.87,0.21,1.14,1.01,0.87
		c0.3-0.1,0.57-0.31,0.83-0.52c3.94-3.21,8.4-3.13,12.83-1.6c4,1.38,5.97,5.4,5.22,9.63c-0.62,3.51-1.32,7.01-1.91,10.52
		c-0.19,1.13-0.62,1.57-1.82,1.48C68.95,34.51,67.35,34.6,65.76,34.6z"/>
	<path class="st0" d="M26.31,46.96c-0.66,0-1.31,0.02-1.97,0c-2-0.07-3.71,0.12-5.48,1.61c-3.15,2.65-7.24,3.11-11.16,2.49
		c-5.85-0.92-8.9-6.6-7.27-12.25c1.31-4.54,4.36-6.81,8.69-7.86c2.91-0.7,5.86-1.09,8.84-1.11c1.56-0.01,3.04-0.27,4.52-0.65
		c1.75-0.45,2.58-1.9,2.35-4.03c-0.12-1.17-1.17-1.95-2.9-2.09c-2.37-0.19-4.5,0.16-5.59,2.68c-0.25,0.57-0.81,0.7-1.42,0.7
		c-3.14-0.01-6.27-0.03-9.41,0.01c-0.89,0.01-0.95-0.28-0.76-1.08c0.84-3.55,2.83-6.28,5.92-8.1c1.84-1.08,3.99-1.48,6.1-1.76
		c4.57-0.59,9.06-0.18,13.55,0.97c4.87,1.25,7.13,5.28,6.4,10.08c-0.95,6.22-2.31,12.34-3.45,18.51c-0.25,1.34-1.01,1.91-2.33,1.89
		C29.4,46.94,27.85,46.96,26.31,46.96z M16.38,43.57c1.96-0.13,3.77-0.81,4.97-2.66c0.95-1.48,1.37-3.15,1.71-4.85
		c0.16-0.8-0.26-0.7-0.8-0.49c-2.01,0.75-4.14,0.98-6.25,1.24c-2.07,0.25-3.63,1.84-3.54,3.79C12.54,42.23,14.24,43.57,16.38,43.57z
		"/>
	<path class="st0" d="M58.81,93.44c0.5-2.4,0.91-5.15,1.67-7.79c0.78-2.75,0.98-2.77,3.09-0.88c4.19,3.77,8.93,6.65,14.15,8.68
		c6.46,2.51,13.2,3.09,20.1,2.59c2.54-0.18,5.01-0.66,7.39-1.39c2.99-0.92,5.99-1.88,8.75-3.43c1.87-1.05,3.67-2.2,5.51-3.27
		c1.79-1.04,3.85-0.44,5.79-0.48c0.71-0.01,0.49,0.55,0.14,0.86c-2.73,2.44-5.41,4.91-8.48,7c-5.09,3.46-10.62,5.79-16.5,7.35
		c-2.1,0.56-4.29,1.11-6.42,1.19c-2.34,0.08-4.7,0.23-7.06,0.24c-6.89,0.03-13.35-1.64-19.66-4.24c-2.47-1.02-4.73-2.37-7-3.72
		C59.4,95.62,58.83,94.86,58.81,93.44z"/>
	<path class="st0" d="M94.38,0.02c-0.76,5.64-1.95,11.07-3.01,16.52c-0.69,3.57-1.51,7.11-2.3,10.67c-0.26,1.16-0.23,2.32-0.12,3.47
		c0.1,0.97,0.58,1.79,1.57,2.15c0.38,0.14,0.71,0.25,0.62,0.75c-0.09,0.48-0.35,0.75-0.85,0.76c-0.09,0-0.19,0-0.28,0
		c-4.54,0-9.07-0.02-13.61,0.02c-1,0.01-1.1-0.5-0.95-1.23c1.24-5.93,2.58-11.85,3.71-17.8c0.81-4.25,1.53-8.52,2.43-12.75
		c0.43-2.03,1.11-2.56,3.17-2.56C87.99,0.01,91.2,0.02,94.38,0.02z"/>
	<path class="st0" d="M134.42,42.17c0.26,2.24,0.53,4.48,0.79,6.72c0.03,0.22,0.04,0.43,0.06,0.65c0.03,0.57,0.05,1.11-0.92,1.07
		c-0.91-0.04-1.32-0.28-1.35-1.3c-0.2-8.31-2.41-16.06-6.82-23.11c-4.96-7.94-11.75-13.82-20.53-17.3
		c-1.48-0.59-3.01-1.06-4.54-1.49c-2.22-0.62-2.53-1.2-1.85-3.62c0.12-0.42,0.22-0.85,0.3-1.29c0.36-2.03,0.38-1.7,3.33-0.66
		c2.29,0.8,4.5,1.8,6.57,3.07c10.3,6.32,17.61,14.97,21.89,25.85c0.82,2.08,1.55,4.22,2.13,6.39
		C133.97,38.99,134.07,40.22,134.42,42.17z"/>
</g>
</svg>
